<?xml version="1.0" standalone="no"?>
<!DOCTYPE svg PUBLIC "-//W3C//DTD SVG 20010904//EN"
 "http://www.w3.org/TR/2001/REC-SVG-20010904/DTD/svg10.dtd">
<svg version="1.0" xmlns="http://www.w3.org/2000/svg"
 width="400.000000pt" height="400.000000pt" viewBox="0 0 400.000000 400.000000"
 preserveAspectRatio="xMidYMid meet">
<metadata>
Created by potrace 1.14, written by Peter Selinger 2001-2017
</metadata>
<g transform="translate(0.000000,400.000000) scale(0.100000,-0.100000)"
fill="#000000" stroke="none">
<path d="M2553 3813 c14 -4 17 -11 13 -29 -8 -31 8 -31 22 0 12 26 0 37 -36
35 -14 -1 -14 -2 1 -6z"/>
<path d="M2516 3725 c-6 -17 16 -31 33 -21 13 9 2 36 -14 36 -7 0 -16 -7 -19
-15z"/>
<path d="M1426 3693 c-2 -3 -2 -10 0 -17 3 -7 0 -25 -6 -41 -9 -22 -7 -34 10
-62 11 -19 20 -41 20 -49 0 -8 5 -14 11 -14 5 0 8 -4 5 -9 -3 -5 1 -14 8 -20
10 -8 16 -9 21 -1 3 5 3 10 -1 10 -4 0 0 8 10 18 18 21 16 64 -3 70 -9 3 -9 7
-1 18 9 10 6 15 -15 20 -24 6 -25 8 -10 23 19 22 19 31 -1 31 -8 0 -13 4 -10
9 6 9 -29 22 -38 14z m54 -153 c0 -5 -5 -10 -11 -10 -5 0 -7 5 -4 10 3 6 8 10
11 10 2 0 4 -4 4 -10z"/>
<path d="M2508 3682 c9 -6 5 -12 -13 -20 -33 -15 -38 -15 -32 2 4 10 0 12 -14
9 -22 -6 -26 -23 -4 -23 8 0 15 -6 15 -14 0 -19 -17 -29 -25 -16 -14 22 -27 9
-21 -20 4 -22 2 -30 -9 -30 -26 0 -16 -18 17 -29 44 -16 62 3 29 30 l-23 19
22 0 c13 0 24 8 27 20 5 19 14 24 39 21 18 -2 24 47 7 53 -21 9 -30 7 -15 -2z"/>
<path d="M2610 3644 c0 -8 5 -12 10 -9 6 4 8 11 5 16 -9 14 -15 11 -15 -7z"/>
<path d="M2375 3589 c-11 -17 1 -21 15 -4 8 9 8 15 2 15 -6 0 -14 -5 -17 -11z"/>
<path d="M2290 3490 c-21 -30 -21 -59 2 -87 6 -7 8 -22 5 -34 -5 -18 -2 -20
16 -14 12 4 32 6 44 6 21 -1 22 3 18 44 -2 30 1 47 9 52 21 13 24 37 7 50 -21
16 -32 16 -26 0 3 -6 -4 -18 -15 -25 -18 -11 -20 -10 -20 13 0 33 -14 32 -40
-5z"/>
<path d="M2680 2590 c0 -5 5 -10 11 -10 5 0 7 5 4 10 -3 6 -8 10 -11 10 -2 0
-4 -4 -4 -10z"/>
<path d="M2660 2560 c0 -5 7 -10 16 -10 8 0 12 5 9 10 -3 6 -10 10 -16 10 -5
0 -9 -4 -9 -10z"/>
<path d="M2067 2140 c3 -11 9 -20 13 -20 5 0 6 9 3 20 -3 11 -9 20 -13 20 -5
0 -6 -9 -3 -20z"/>
<path d="M2620 2122 c0 -5 7 -15 15 -22 8 -7 15 -8 15 -2 0 5 -7 15 -15 22 -8
7 -15 8 -15 2z"/>
<path d="M687 2094 c-3 -3 -3 -12 0 -20 3 -8 0 -14 -7 -14 -6 0 -8 -5 -5 -10
9 -14 21 -5 28 20 5 20 -5 35 -16 24z"/>
<path d="M2570 2068 c0 -7 5 -20 11 -28 9 -12 10 -12 5 4 -4 11 -1 23 6 28 10
6 8 8 -4 8 -10 0 -18 -6 -18 -12z"/>
<path d="M728 2038 c-5 -11 -14 -15 -27 -11 -15 4 -21 1 -21 -11 0 -9 7 -16
16 -16 13 0 15 -8 12 -35 -2 -19 0 -35 4 -35 4 0 9 8 10 18 2 25 4 35 12 54 4
9 6 25 4 35 -3 16 -4 16 -10 1z"/>
<path d="M2550 2029 c0 -5 5 -7 10 -4 6 3 10 8 10 11 0 2 -4 4 -10 4 -5 0 -10
-5 -10 -11z"/>
<path d="M2620 2025 c0 -8 7 -15 15 -15 9 0 12 6 9 15 -4 8 -10 15 -15 15 -5
0 -9 -7 -9 -15z"/>
<path d="M2665 2030 c3 -5 10 -10 16 -10 5 0 9 5 9 10 0 6 -7 10 -16 10 -8 0
-12 -4 -9 -10z"/>
<path d="M3115 2020 c-4 -6 6 -10 24 -10 16 0 33 -4 36 -10 3 -5 11 -10 16
-10 6 0 4 6 -3 13 -18 19 -65 29 -73 17z"/>
<path d="M2003 1994 c-15 -15 -17 -44 -4 -44 8 0 25 49 19 55 -2 2 -9 -3 -15
-11z"/>
<path d="M2588 1993 c-16 -2 -28 -9 -28 -14 0 -6 9 -7 20 -4 19 6 30 -10 11
-17 -5 -1 -12 -22 -14 -46 -3 -28 0 -41 7 -39 6 3 10 10 9 16 -4 15 33 51 52
51 24 0 18 -18 -7 -23 -22 -3 -21 -4 7 -16 21 -9 26 -14 16 -20 -7 -5 -21 -6
-31 -4 -12 3 -22 -4 -32 -23 -7 -15 -20 -29 -28 -32 -13 -3 -13 -2 0 8 11 9
12 13 3 17 -7 2 -16 3 -20 1 -10 -5 -11 -50 -1 -70 5 -11 5 -18 -1 -18 -6 0
-9 -26 -6 -65 3 -44 1 -65 -7 -65 -6 0 -3 -8 6 -19 13 -15 14 -20 4 -24 -10
-4 -10 -7 -1 -18 10 -10 10 -16 -2 -29 -20 -23 -25 -76 -9 -97 13 -17 13 -17
14 0 0 9 5 17 11 17 6 0 9 -12 8 -28 -2 -15 4 -39 14 -52 16 -24 16 -26 0 -37
-9 -7 -13 -13 -7 -13 5 0 2 -5 -6 -10 -12 -8 -10 -10 8 -10 21 0 22 -1 8 -16
-9 -8 -20 -12 -26 -9 -5 3 -10 -1 -10 -10 0 -23 -22 -43 -40 -37 -13 5 -13 3
-1 -11 12 -15 11 -17 -3 -17 -9 0 -16 7 -16 15 0 17 -16 20 -25 5 -3 -6 1 -17
9 -26 9 -8 16 -22 16 -29 0 -12 -6 -12 -27 -4 -19 7 -29 7 -31 0 -8 -23 -22
-10 -22 19 0 17 5 30 11 30 5 0 7 5 4 10 -4 6 -11 8 -16 5 -8 -6 -11 10 -12
73 -1 12 -4 22 -8 22 -4 0 -10 7 -13 16 -3 8 -2 12 4 9 6 -3 10 -2 10 4 0 5
-4 13 -10 16 -5 3 -10 15 -10 26 0 10 -7 19 -15 19 -11 0 -14 7 -9 25 4 16 2
25 -6 25 -6 0 -8 -4 -5 -10 3 -5 -3 -10 -14 -10 -25 0 -28 -20 -3 -21 11 -1 9
-4 -8 -9 -14 -4 -19 -8 -12 -9 6 -1 12 -8 12 -16 0 -9 -6 -12 -16 -8 -14 5
-16 1 -11 -23 3 -16 -1 -43 -8 -61 -7 -17 -11 -34 -7 -37 3 -3 0 -6 -7 -6 -6
0 -10 -10 -8 -22 2 -13 2 -18 0 -11 -2 7 -13 15 -23 18 -10 3 -21 12 -24 20
-3 8 -10 15 -17 15 -6 0 -9 -7 -5 -15 3 -8 1 -15 -4 -15 -16 0 -20 18 -5 30 7
6 11 18 8 27 -4 11 -2 14 8 11 8 -3 13 -13 11 -23 -2 -10 1 -14 7 -10 17 10
13 45 -6 52 -9 4 -29 -1 -45 -10 -22 -13 -28 -13 -28 -3 0 8 9 16 20 19 11 3
20 13 20 22 0 9 -4 14 -9 10 -15 -8 -8 68 7 84 10 10 10 16 2 21 -6 4 -8 15
-4 26 5 13 4 16 -4 9 -6 -5 -15 -28 -21 -50 -5 -22 -19 -74 -31 -115 -12 -41
-25 -95 -28 -119 -4 -24 -13 -46 -21 -49 -11 -4 -12 2 -7 24 4 16 11 52 16 81
4 28 13 66 19 85 18 58 41 154 47 195 5 36 3 42 -15 48 -12 3 -30 4 -40 0 -17
-5 -21 0 -27 29 -3 20 -4 52 -2 71 2 19 -1 37 -7 39 -6 3 -4 9 5 15 12 9 10
11 -11 11 -14 0 -34 -9 -44 -20 -16 -18 -16 -20 -1 -35 9 -9 16 -23 16 -31 0
-8 4 -14 8 -14 12 0 13 -58 1 -65 -5 -4 -9 5 -9 19 0 13 -6 31 -13 38 -8 7
-12 19 -9 26 5 15 -10 16 -26 0 -9 -9 -12 -8 -12 4 0 9 -4 20 -10 23 -6 3 -7
-1 -4 -9 4 -11 0 -16 -11 -16 -14 0 -16 -6 -12 -32 3 -18 2 -41 -2 -51 -6 -17
-8 -18 -20 -3 -10 12 -17 13 -26 6 -18 -15 -31 26 -15 45 10 12 9 20 -4 40 -9
14 -21 25 -27 25 -8 0 -7 5 1 15 10 12 10 15 -4 15 -11 0 -16 -9 -16 -29 0
-16 -5 -31 -12 -33 -6 -2 -12 -20 -13 -39 -3 -108 -6 -132 -12 -125 -4 3 -8
25 -9 47 -3 51 -24 79 -24 31 0 -18 -4 -32 -10 -32 -12 0 -13 -27 -1 -32 5 -2
11 -14 13 -28 2 -19 -1 -24 -14 -22 -9 1 -20 -3 -24 -9 -5 -9 -2 -10 9 -6 23
9 30 -8 15 -33 -8 -13 -9 -23 -3 -28 16 -11 16 -32 0 -32 -8 0 -15 -7 -15 -15
0 -9 -6 -12 -15 -9 -8 4 -15 1 -15 -5 0 -6 6 -11 13 -11 7 0 18 -9 24 -19 10
-15 9 -22 -2 -31 -8 -7 -15 -19 -15 -26 0 -8 -6 -14 -12 -14 -7 0 -2 -7 10
-16 12 -8 26 -13 31 -9 5 3 12 2 15 -3 2 -4 -10 -9 -27 -10 -17 -2 -36 -7 -42
-13 -7 -7 -5 -8 6 -4 10 4 20 2 24 -4 3 -6 -1 -11 -10 -11 -26 0 -29 -30 -6
-61 25 -34 20 -38 -11 -9 -12 11 -30 20 -40 20 -15 0 -18 -6 -15 -33 4 -31 2
-33 -20 -29 -22 4 -33 22 -13 22 21 0 9 20 -12 21 -17 1 -19 2 -5 6 9 2 17 8
17 13 0 5 -8 6 -17 3 -12 -5 -15 -2 -10 10 3 9 2 19 -3 22 -6 4 -10 21 -10 40
0 18 -3 40 -6 49 -7 17 -54 22 -54 6 0 -5 -7 -10 -15 -10 -8 0 -15 -7 -15 -15
0 -9 -7 -18 -15 -21 -8 -4 -12 -10 -10 -15 3 -5 -1 -22 -10 -39 -16 -31 -46
-39 -75 -20 -12 8 -13 12 -2 19 9 5 1 10 -27 15 -37 6 -59 26 -28 26 7 0 5 5
-5 11 -10 5 -15 16 -12 24 4 9 0 15 -10 15 -10 0 -13 6 -10 15 4 10 0 15 -14
15 -16 0 -19 7 -20 43 0 63 7 94 19 76 7 -11 9 -9 9 7 0 29 -40 41 -47 13 -9
-35 -34 -22 -31 16 1 20 7 35 15 35 6 0 17 8 23 18 10 15 11 14 6 -7 -4 -18
-2 -21 7 -12 14 14 30 15 22 1 -8 -13 4 -32 16 -25 5 4 2 19 -6 36 -12 22 -13
38 -6 64 5 18 6 36 3 40 -4 3 -1 9 5 13 11 7 6 62 -6 62 -3 0 -12 -9 -19 -20
-11 -17 -10 -20 7 -20 19 0 19 -1 0 -40 -11 -23 -17 -44 -15 -49 3 -5 -3 -11
-14 -14 -11 -3 -20 -13 -20 -22 0 -11 -7 -16 -22 -14 -32 5 -48 -8 -48 -36 0
-13 -5 -27 -11 -31 -8 -5 -10 3 -7 26 4 28 3 30 -7 16 -10 -13 -12 -3 -11 54
2 77 -6 104 -22 74 -5 -11 -7 -25 -5 -32 3 -7 0 -19 -7 -27 -8 -10 -8 -19 0
-34 8 -16 8 -21 -2 -21 -14 0 -19 -76 -6 -96 5 -7 -4 -9 -25 -7 l-32 3 35 -14
c19 -8 29 -15 21 -15 -8 -1 -11 -8 -8 -21 4 -18 2 -20 -16 -14 -12 4 -23 11
-25 15 -2 5 -11 9 -20 8 -9 0 -12 -3 -6 -5 7 -3 10 -14 7 -24 -3 -12 1 -22 11
-26 9 -3 13 -10 10 -15 -3 -5 0 -9 5 -9 6 0 11 -4 11 -9 0 -5 -11 -4 -24 2
-13 7 -22 15 -20 19 3 5 -2 8 -11 8 -12 0 -15 -5 -10 -18 5 -14 4 -15 -6 -4
-17 16 -29 15 -29 -3 0 -8 4 -15 8 -15 4 0 8 -9 9 -20 1 -11 -2 -20 -7 -20
-11 0 -31 70 -24 82 3 4 1 8 -4 8 -14 0 -10 29 6 35 8 3 11 12 8 20 -3 8 -1
15 4 15 6 0 10 7 10 15 0 8 -5 15 -10 15 -7 0 -7 6 -1 18 10 19 10 77 -1 87
-4 4 -4 13 -1 21 3 8 0 14 -7 14 -10 0 -10 3 0 15 8 10 9 15 2 15 -16 0 -34
-37 -23 -45 6 -3 1 -20 -10 -40 -21 -35 -39 -46 -39 -22 0 8 -3 8 -9 -2 -6 -9
-6 -22 0 -32 13 -24 11 -29 -6 -23 -14 6 -21 -17 -16 -48 0 -5 -3 -8 -9 -8 -5
0 -10 -15 -10 -34 0 -19 -4 -37 -9 -41 -5 -3 -12 -18 -16 -34 -8 -37 -41 -69
-56 -54 -6 6 -12 23 -12 37 -1 14 -6 26 -10 26 -13 0 -25 -44 -15 -57 5 -7 5
-13 0 -17 -5 -3 -12 -38 -16 -78 -3 -40 -8 -91 -11 -113 l-5 -40 15 30 c8 17
14 26 15 20 0 -5 5 -4 12 3 17 17 39 15 31 -3 -3 -9 3 -25 12 -35 17 -18 17
-20 1 -20 -13 0 -15 -6 -10 -25 4 -15 2 -25 -5 -25 -6 0 -11 5 -11 10 0 6 -8
10 -17 10 -15 0 -15 -2 2 -14 16 -12 17 -18 7 -40 -7 -16 -8 -28 -2 -31 6 -4
10 -1 10 4 0 6 8 11 18 10 10 0 12 -3 5 -6 -7 -2 -13 -9 -13 -14 0 -4 7 -5 17
-2 11 5 14 3 8 -6 -4 -8 -18 -11 -34 -8 -22 5 -27 2 -27 -14 0 -10 6 -19 13
-19 7 0 13 -9 13 -19 0 -19 2 -19 35 -5 19 8 35 10 35 5 0 -5 -9 -13 -21 -16
-11 -4 -18 -9 -15 -12 3 -3 16 1 30 10 13 9 26 13 30 10 11 -11 6 -40 -9 -53
-12 -10 -15 -10 -15 0 0 8 -3 10 -6 7 -9 -9 16 -67 30 -67 6 0 4 -6 -5 -13 -9
-7 -15 -20 -13 -29 1 -10 -2 -18 -7 -18 -5 0 -9 -4 -9 -10 0 -5 7 -10 15 -10
8 0 15 -5 15 -11 0 -5 5 -7 12 -3 7 5 8 3 3 -5 -5 -9 -10 -10 -18 -2 -6 6 -15
11 -21 11 -6 0 -5 -5 2 -12 22 -22 14 -48 -15 -49 -25 0 -26 -1 -8 -9 l20 -9
-20 0 c-17 -1 -17 -3 -5 -11 12 -8 11 -10 -8 -10 -14 0 -22 -5 -20 -14 2 -8
-7 -23 -20 -34 -20 -17 -21 -23 -11 -48 l11 -29 14 32 c14 32 40 53 67 53 27
0 61 -36 63 -68 2 -34 11 -52 25 -52 12 0 12 37 -1 45 -12 8 -13 52 -1 59 16
11 60 -35 67 -69 9 -48 -13 -87 -54 -97 -28 -7 -32 -12 -22 -23 7 -8 33 -24
59 -36 25 -12 53 -25 61 -29 8 -4 21 -19 28 -33 7 -15 16 -27 20 -27 4 0 8 52
8 116 1 69 6 120 13 127 8 8 11 8 11 -1 0 -7 6 -12 13 -12 9 0 12 26 12 93 1
76 6 106 29 170 16 43 32 80 36 82 20 12 17 -31 -7 -92 -22 -58 -26 -83 -25
-168 0 -55 6 -122 12 -150 6 -27 12 -63 14 -80 2 -16 4 -33 5 -37 0 -5 17 -8
36 -8 32 0 35 2 37 33 1 17 1 43 0 55 -1 17 3 22 13 18 9 -3 12 0 8 10 -3 9 1
14 11 14 9 0 16 -6 15 -12 -3 -26 1 -39 11 -33 6 3 10 2 10 -4 0 -5 -6 -11
-12 -14 -7 -3 -3 -4 10 -4 12 1 22 5 22 9 0 4 5 8 11 8 6 0 9 -7 5 -15 -7 -20
4 -19 19 2 11 15 15 15 29 4 11 -9 16 -10 16 -2 0 6 7 11 15 11 8 0 12 -6 9
-13 -4 -10 7 -14 41 -14 28 0 41 4 33 9 -9 5 -7 8 7 9 26 2 27 2 50 -7 16 -6
18 -5 8 7 -19 20 -16 31 6 20 10 -6 31 -7 47 -2 72 19 112 6 144 -49 7 -12 11
-13 21 -2 20 19 31 14 19 -7 -8 -16 -6 -21 13 -27 25 -9 78 -12 90 -6 4 2 1
15 -8 28 -10 15 -11 24 -4 24 6 0 8 7 5 16 -10 25 4 65 22 62 19 -4 43 -99 30
-122 -6 -10 -5 -16 2 -16 5 0 10 -11 10 -24 0 -28 21 -39 52 -26 13 5 18 9 11
9 -24 2 -19 36 7 48 l25 12 -22 6 c-19 6 -23 14 -23 50 0 25 6 50 15 59 8 8
12 22 9 30 -3 9 -3 24 1 33 5 10 7 28 6 40 -1 11 2 24 7 27 5 3 7 18 4 32 -4
20 -2 25 8 19 9 -6 11 -29 7 -89 -3 -44 -2 -97 2 -116 4 -19 4 -50 0 -68 -4
-17 -3 -35 2 -38 5 -3 7 -10 4 -15 -4 -5 -2 -9 4 -9 5 0 11 6 13 13 3 8 32 12
99 12 130 -1 312 -15 325 -26 6 -5 19 -7 28 -3 12 4 15 2 10 -9 -8 -22 15 -26
149 -26 88 0 117 3 114 12 -3 7 -11 10 -18 8 -8 -2 -29 -5 -47 -6 -52 -3 -31
19 24 25 l49 5 2 85 c3 96 3 136 0 165 -1 11 2 22 7 25 9 5 13 -8 21 -75 3
-22 9 -41 15 -43 6 -2 6 -10 0 -21 -5 -10 -6 -22 -2 -26 7 -7 9 -19 12 -97 2
-27 4 -48 6 -48 1 0 19 17 38 37 24 26 32 41 25 49 -7 8 -1 14 18 19 16 3 57
23 93 44 89 51 161 80 214 87 26 4 54 16 70 31 26 24 30 37 26 81 -1 12 2 22
7 22 5 0 9 9 9 20 0 13 -5 19 -14 15 -10 -3 -11 1 -7 16 5 14 3 19 -3 15 -6
-3 -21 -2 -34 3 l-23 10 23 0 c20 1 34 21 14 21 -5 0 -9 7 -9 15 0 8 6 15 13
15 8 0 11 -6 7 -16 -4 -12 -2 -15 8 -12 8 3 15 10 15 16 1 7 2 13 4 15 14 18
-8 158 -50 307 -22 80 -43 304 -35 384 5 49 3 57 -9 53 -8 -3 -24 3 -36 13
-12 11 -31 22 -42 26 -15 4 -18 12 -14 29 8 30 -13 44 -30 21 -20 -28 -54 -4
-54 37 0 40 -10 56 -34 54 -10 -1 -21 4 -23 11 -3 6 2 12 11 12 9 0 16 7 16
16 0 10 -6 14 -15 11 -20 -8 -29 11 -15 28 19 23 -6 19 -29 -4 -11 -11 -21
-18 -23 -16 -2 2 -3 -14 -3 -36 0 -22 -3 -43 -8 -46 -5 -3 -3 -10 4 -15 10 -7
6 -8 -13 -4 -26 6 -27 4 -24 -27 2 -19 6 -39 10 -46 4 -6 3 -11 -1 -11 -5 0
-8 -29 -7 -65 3 -61 1 -65 -19 -64 -12 0 -16 3 -9 6 20 8 14 26 -8 20 -11 -3
-20 -1 -20 4 0 5 9 9 20 9 12 0 20 7 20 16 0 10 -6 14 -14 11 -8 -3 -20 1 -27
9 -10 12 -9 13 7 7 17 -6 17 -5 5 10 -7 9 -23 17 -35 17 -12 0 -16 3 -10 8 5
4 11 16 11 27 1 11 3 30 6 43 4 16 1 22 -11 22 -15 1 -15 2 2 15 19 15 19 15
-5 15 -26 0 -29 8 -28 83 0 33 -3 38 -18 33 -17 -5 -19 0 -18 44 0 31 -4 50
-11 50 -16 0 -23 21 -17 53 3 16 1 27 -6 27 -5 0 -8 7 -4 15 3 9 -2 24 -12 35
-13 14 -14 23 -5 39 7 15 8 27 0 40 -5 11 -10 33 -10 50 0 23 -7 33 -30 45
-27 13 -30 13 -30 -1 0 -19 -24 -11 -28 9 -2 9 5 18 15 21 22 6 -1 6 -39 0z
m77 -163 c3 -5 -1 -10 -9 -10 -9 0 -16 5 -16 10 0 6 4 10 9 10 6 0 13 -4 16
-10z m-65 -24 c0 -3 -4 -8 -10 -11 -5 -3 -10 -1 -10 4 0 6 5 11 10 11 6 0 10
-2 10 -4z m50 -16 c0 -5 -5 -10 -11 -10 -5 0 -7 5 -4 10 3 6 8 10 11 10 2 0 4
-4 4 -10z m50 -21 c0 -6 -4 -7 -10 -4 -5 3 -10 11 -10 16 0 6 5 7 10 4 6 -3
10 -11 10 -16z m-885 -109 c3 -5 1 -10 -4 -10 -6 0 -11 5 -11 10 0 6 2 10 4
10 3 0 8 -4 11 -10z m52 -112 c-2 -13 -4 -5 -4 17 -1 22 1 32 4 23 2 -10 2
-28 0 -40z m-87 -38 c0 -5 -5 -10 -11 -10 -5 0 -7 5 -4 10 3 6 8 10 11 10 2 0
4 -4 4 -10z m-2 -59 c-1 -16 -6 -27 -10 -25 -10 6 -6 54 4 54 5 0 7 -13 6 -29z
m1262 -26 c0 -1 -12 -2 -26 -2 -17 0 -22 2 -13 7 10 7 39 3 39 -5z m-2160 -19
c0 -2 -7 -6 -15 -10 -8 -3 -15 -1 -15 4 0 6 7 10 15 10 8 0 15 -2 15 -4z m305
-27 c-4 -11 -7 -40 -7 -65 -1 -46 -8 -53 -27 -30 -13 16 -6 82 12 104 15 19
29 14 22 -9z m-330 -11 c6 -4 2 -8 -7 -8 -10 0 -18 7 -18 17 0 9 3 12 8 7 4
-5 12 -12 17 -16z m922 0 c-3 -8 -6 -5 -6 6 -1 11 2 17 5 13 3 -3 4 -12 1 -19z
m560 0 c-3 -8 -6 -5 -6 6 -1 11 2 17 5 13 3 -3 4 -12 1 -19z m778 -68 c-3 -5
-12 -10 -18 -10 -7 0 -6 4 3 10 19 12 23 12 15 0z m-1378 -20 c-2 -11 -6 -22
-9 -26 -4 -3 -5 2 -3 13 2 10 4 21 4 26 1 4 3 7 6 7 3 0 4 -9 2 -20z m-504
-22 c4 -12 1 -25 -4 -29 -8 -5 -8 -9 0 -13 6 -4 11 -16 11 -27 0 -10 3 -18 8
-18 19 3 32 -2 32 -14 0 -7 14 -21 30 -31 17 -9 28 -21 25 -26 -6 -9 -45 -2
-45 9 0 4 -16 15 -35 26 -20 10 -34 24 -31 31 3 7 -4 22 -15 35 -22 25 -24 39
-6 39 8 0 7 4 -3 10 -13 9 -13 11 0 20 22 14 27 12 33 -12z m624 -10 c-3 -8
-6 -5 -6 6 -1 11 2 17 5 13 3 -3 4 -12 1 -19z m967 6 c4 -10 1 -14 -6 -12 -15
5 -23 28 -10 28 5 0 13 -7 16 -16z m-1324 -4 c0 -5 -5 -10 -11 -10 -5 0 -7 5
-4 10 3 6 8 10 11 10 2 0 4 -4 4 -10z m1105 -10 c-3 -5 -12 -10 -18 -10 -7 0
-6 4 3 10 19 12 23 12 15 0z m-382 -26 c-3 -9 -9 -11 -12 -6 -3 5 -15 12 -26
15 -13 3 -9 5 12 6 26 1 31 -2 26 -15z m700 -28 c3 -8 0 -19 -7 -25 -10 -9
-12 -6 -8 14 5 29 8 31 15 11z m-1713 -6 c0 -5 -4 -10 -10 -10 -5 0 -10 5 -10
10 0 6 5 10 10 10 6 0 10 -4 10 -10z m1025 0 c3 -5 1 -10 -4 -10 -6 0 -11 5
-11 10 0 6 2 10 4 10 3 0 8 -4 11 -10z m-540 -20 c3 -5 1 -10 -4 -10 -6 0 -11
5 -11 10 0 6 2 10 4 10 3 0 8 -4 11 -10z m361 -32 c-10 -63 -28 -84 -20 -23 7
52 11 65 21 65 3 0 3 -19 -1 -42z m-316 22 c0 -5 -4 -10 -10 -10 -5 0 -10 5
-10 10 0 6 5 10 10 10 6 0 10 -4 10 -10z m710 0 c0 -5 -5 -10 -11 -10 -5 0 -7
5 -4 10 3 6 8 10 11 10 2 0 4 -4 4 -10z m-1060 -29 c0 -5 -7 -11 -15 -15 -15
-5 -20 5 -8 17 9 10 23 9 23 -2z m1105 -1 c3 -6 -1 -7 -9 -4 -18 7 -21 14 -7
14 6 0 13 -4 16 -10z m-1805 -20 c0 -5 -4 -10 -10 -10 -5 0 -10 5 -10 10 0 6
5 10 10 10 6 0 10 -4 10 -10z m1050 -20 c0 -5 -2 -10 -4 -10 -3 0 -8 5 -11 10
-3 6 -1 10 4 10 6 0 11 -4 11 -10z m-691 -36 c18 -9 30 -18 27 -21 -8 -8 -66
18 -66 28 0 12 2 12 39 -7z m-374 -4 c3 -5 -1 -10 -9 -10 -9 0 -16 5 -16 10 0
6 4 10 9 10 6 0 13 -4 16 -10z m450 -68 c-3 -3 -11 0 -18 7 -9 10 -8 11 6 5
10 -3 15 -9 12 -12z m495 -17 c0 -8 -4 -15 -10 -15 -5 0 -7 7 -4 15 4 8 8 15
10 15 2 0 4 -7 4 -15z m-853 -75 c13 -50 8 -51 -12 -4 -17 42 -18 44 -7 44 4
0 13 -18 19 -40z m290 -12 c-3 -7 -5 -2 -5 12 0 14 2 19 5 13 2 -7 2 -19 0
-25z m-303 -61 c-7 -41 -19 -35 -21 11 -2 42 -1 45 12 29 7 -11 12 -28 9 -40z
m1633 31 c-3 -8 -6 -5 -6 6 -1 11 2 17 5 13 3 -3 4 -12 1 -19z m-1567 -28 c0
-5 -2 -10 -4 -10 -3 0 -8 5 -11 10 -3 6 -1 10 4 10 6 0 11 -4 11 -10z m1570
-2 c0 -23 -12 -58 -19 -58 -4 0 -5 16 -3 35 4 32 22 51 22 23z m-1180 -63 c0
-8 -4 -15 -10 -15 -5 0 -7 7 -4 15 4 8 8 15 10 15 2 0 4 -7 4 -15z m1510 -62
c59 -104 82 -180 76 -247 -4 -33 -8 -61 -10 -63 -2 -3 -7 20 -11 49 -7 55 -32
138 -64 211 -31 71 -41 98 -41 108 0 20 18 -2 50 -58z m-1224 39 c-10 -2 -22
0 -28 6 -6 6 0 7 19 4 21 -5 23 -7 9 -10z m880 -19 c-11 -11 -19 6 -11 24 8
17 8 17 12 0 3 -10 2 -21 -1 -24z m-1541 10 c-2 -10 -4 -21 -4 -25 -1 -5 -11
-8 -23 -8 -22 1 -23 1 -4 15 11 8 16 15 12 15 -4 0 -4 5 -1 10 10 16 23 11 20
-7z m365 -13 c0 -11 -4 -20 -10 -20 -5 0 -10 -12 -10 -26 0 -14 -4 -23 -10
-19 -5 3 -10 -1 -10 -9 0 -9 5 -16 10 -16 6 0 10 -5 10 -11 0 -17 -21 1 -30
27 -7 17 -5 34 7 59 18 38 43 47 43 15z m157 4 c-3 -3 -12 -4 -19 -1 -8 3 -5
6 6 6 11 1 17 -2 13 -5z m1157 -9 c-4 -8 -10 -15 -15 -15 -5 0 -9 7 -9 15 0 8
7 15 15 15 9 0 12 -6 9 -15z m-876 -12 c16 -16 16 -16 -1 -10 -10 4 -23 7 -28
7 -6 0 -7 5 -4 10 9 14 14 13 33 -7z m-351 1 c-3 -3 -12 -4 -19 -1 -8 3 -5 6
6 6 11 1 17 -2 13 -5z m1063 2 c0 -3 -4 -8 -10 -11 -5 -3 -10 -1 -10 4 0 6 5
11 10 11 6 0 10 -2 10 -4z m-733 -22 c-3 -3 -12 -4 -19 -1 -8 3 -5 6 6 6 11 1
17 -2 13 -5z m30 -19 c0 -8 -6 -15 -13 -15 -8 0 -11 6 -8 15 4 8 9 15 13 15 4
0 8 -7 8 -15z m1653 -22 c-1 -24 -2 -26 -11 -10 -5 9 -7 22 -4 27 10 17 15 11
15 -17z m-1690 13 c0 -11 -19 -15 -25 -6 -3 5 1 10 9 10 9 0 16 -2 16 -4z m40
-26 c0 -5 -9 -14 -20 -20 -16 -8 -20 -8 -18 2 2 7 10 16 18 20 21 9 20 9 20
-2z m-217 -15 c-3 -9 -8 -14 -10 -11 -3 3 -2 9 2 15 9 16 15 13 8 -4z m1134 9
c-3 -3 -12 -4 -19 -1 -8 3 -5 6 6 6 11 1 17 -2 13 -5z m-728 -66 c5 -29 13
-75 16 -103 4 -27 9 -66 12 -85 3 -19 6 -43 5 -52 0 -10 3 -18 9 -18 5 0 9 -9
9 -20 0 -11 -4 -20 -10 -20 -17 0 -27 33 -34 110 -7 71 -20 168 -31 218 -3 12
-1 22 4 22 5 0 14 -24 20 -52z m501 22 c0 -5 -2 -10 -4 -10 -3 0 -8 5 -11 10
-3 6 -1 10 4 10 6 0 11 -4 11 -10z m-680 -30 c0 -5 -4 -10 -10 -10 -5 0 -10 5
-10 10 0 6 5 10 10 10 6 0 10 -4 10 -10z m-360 -10 c0 -5 -2 -10 -4 -10 -3 0
-8 5 -11 10 -3 6 -1 10 4 10 6 0 11 -4 11 -10z m354 -31 c-8 -14 -21 -11 -21
5 0 8 6 12 14 9 7 -3 10 -9 7 -14z m-116 -10 c-19 -12 -25 -11 -25 5 0 8 8 11
20 8 14 -4 16 -7 5 -13z m-295 -6 c-3 -7 -8 -13 -12 -13 -4 0 -8 6 -8 13 0 8
6 14 13 14 7 0 10 -6 7 -14z m207 13 c0 -2 -7 -7 -16 -10 -8 -3 -12 -2 -9 4 6
10 25 14 25 6z m573 -57 c-5 -5 -7 7 -4 29 5 34 6 35 9 8 2 -16 0 -32 -5 -37z
m-818 21 c3 -5 -1 -10 -10 -10 -9 0 -13 5 -10 10 3 6 8 10 10 10 2 0 7 -4 10
-10z m1155 -27 c-11 -17 -11 -17 -6 0 3 10 6 24 7 30 0 9 2 9 5 0 3 -7 0 -20
-6 -30z m970 -1 c0 -4 -10 -9 -22 -9 -18 -2 -20 0 -8 7 18 12 30 13 30 2z
m-1975 -12 c-3 -5 -11 -10 -16 -10 -6 0 -7 5 -4 10 3 6 11 10 16 10 6 0 7 -4
4 -10z m-160 -19 c3 -5 1 -12 -5 -16 -5 -3 -10 1 -10 9 0 18 6 21 15 7z m1145
-21 c-6 -12 -14 -20 -17 -17 -2 3 1 14 8 26 7 11 15 18 17 16 2 -2 -2 -13 -8
-25z m-1038 5 c-22 -15 -51 -15 -46 0 3 6 18 12 34 12 26 0 28 -2 12 -12z
m158 5 c0 -5 -5 -10 -11 -10 -5 0 -7 5 -4 10 3 6 8 10 11 10 2 0 4 -4 4 -10z
m1851 -43 c-13 -13 -26 -3 -16 12 3 6 11 8 17 5 6 -4 6 -10 -1 -17z m-2012
-13 c14 -12 -19 -1 -35 12 -18 14 -18 14 6 3 14 -6 27 -13 29 -15z m-67 -16
c-7 -7 -12 -8 -12 -2 0 14 12 26 19 19 2 -3 -1 -11 -7 -17z m4 -43 c-3 -9 -11
-13 -16 -10 -8 5 -7 11 1 21 14 18 24 11 15 -11z m44 -15 c0 -5 -7 -10 -15
-10 -8 0 -15 5 -15 10 0 6 7 10 15 10 8 0 15 -4 15 -10z m860 -70 c0 -5 -5
-10 -11 -10 -5 0 -7 5 -4 10 3 6 8 10 11 10 2 0 4 -4 4 -10z m-330 -40 c0 -5
-9 -14 -20 -20 -18 -10 -19 -9 -8 14 10 23 28 27 28 6z m30 -20 c0 -5 -5 -10
-11 -10 -5 0 -7 5 -4 10 3 6 8 10 11 10 2 0 4 -4 4 -10z m745 -60 c3 -5 2 -10
-4 -10 -5 0 -16 -3 -24 -6 -8 -3 -17 2 -20 10 -5 12 0 16 18 16 13 0 27 -4 30
-10z m78 -6 c-3 -8 -12 -13 -20 -10 -8 3 -22 6 -31 7 -10 1 -7 4 8 9 40 13 50
11 43 -6z"/>
<path d="M2039 1983 c-1 -5 -1 -11 0 -15 0 -5 -3 -8 -9 -8 -5 0 -10 -4 -10
-10 0 -5 6 -7 14 -4 16 6 29 44 15 44 -5 0 -10 -3 -10 -7z"/>
<path d="M2660 1980 c0 -5 7 -10 15 -10 8 0 15 5 15 10 0 6 -7 10 -15 10 -8 0
-15 -4 -15 -10z"/>
<path d="M3130 1970 c0 -5 -6 -10 -14 -10 -7 0 -16 -11 -18 -23 -4 -22 -2 -24
27 -20 28 3 33 0 37 -21 4 -21 0 -26 -25 -32 -29 -6 -29 -7 -10 -18 11 -6 18
-18 16 -26 -3 -11 -1 -10 10 3 8 9 20 17 27 17 8 0 10 8 6 25 -5 18 -2 27 8
31 14 5 14 8 1 20 -8 8 -11 22 -8 30 3 9 0 20 -8 25 -19 12 -49 11 -49 -1z"/>
<path d="M650 1945 c0 -8 2 -15 4 -15 2 0 6 7 10 15 3 8 1 15 -4 15 -6 0 -10
-7 -10 -15z"/>
<path d="M2539 1953 c-3 -20 4 -59 11 -67 5 -5 8 9 7 32 -1 23 -5 42 -9 42 -4
0 -8 -3 -9 -7z"/>
<path d="M3236 1925 c-3 -8 -1 -15 4 -15 6 0 10 7 10 15 0 8 -2 15 -4 15 -2 0
-6 -7 -10 -15z"/>
<path d="M1996 1915 c4 -8 7 -15 9 -15 2 0 5 7 9 15 3 9 0 15 -9 15 -9 0 -12
-6 -9 -15z"/>
<path d="M690 1900 c0 -5 5 -10 10 -10 6 0 10 5 10 10 0 6 -4 10 -10 10 -5 0
-10 -4 -10 -10z"/>
<path d="M2046 1883 c-6 -14 -5 -15 5 -6 7 7 10 15 7 18 -3 3 -9 -2 -12 -12z"/>
<path d="M2002 1871 c2 -7 7 -12 11 -12 12 1 9 15 -3 20 -7 2 -11 -2 -8 -8z"/>
<path d="M1770 1860 c0 -5 5 -10 10 -10 6 0 10 5 10 10 0 6 -4 10 -10 10 -5 0
-10 -4 -10 -10z"/>
<path d="M1160 1833 c0 -13 5 -23 10 -23 13 0 13 11 0 30 -8 12 -10 11 -10 -7z"/>
<path d="M3229 1843 c-13 -3 -15 -10 -10 -30 11 -42 31 -41 31 1 0 20 -1 35
-2 35 -2 -1 -10 -3 -19 -6z"/>
<path d="M1765 1830 c-3 -5 -1 -10 4 -10 6 0 11 5 11 10 0 6 -2 10 -4 10 -3 0
-8 -4 -11 -10z"/>
<path d="M559 1802 c-3 -20 -2 -29 4 -23 5 5 7 19 5 32 -3 20 -5 19 -9 -9z"/>
<path d="M650 1794 c0 -8 5 -12 10 -9 6 3 10 10 10 16 0 5 -4 9 -10 9 -5 0
-10 -7 -10 -16z"/>
<path d="M1256 1801 c-5 -7 -14 -10 -22 -7 -20 8 -29 -15 -10 -26 13 -7 16
-17 11 -39 -5 -22 -3 -29 9 -29 9 0 16 7 16 15 0 8 8 15 18 15 14 0 14 2 3 9
-8 5 -12 15 -9 22 8 21 -7 56 -16 40z"/>
<path d="M1770 1794 c0 -8 5 -12 10 -9 6 4 8 11 5 16 -9 14 -15 11 -15 -7z"/>
<path d="M3228 1750 c-10 -11 -13 -22 -8 -25 6 -4 10 -17 10 -31 0 -21 4 -25
23 -22 18 2 22 9 20 37 0 18 -7 40 -15 47 -12 12 -16 11 -30 -6z"/>
<path d="M1169 1755 c-1 -6 -1 -14 0 -19 1 -5 -5 -16 -14 -26 -14 -15 -14 -18
0 -30 13 -11 15 -9 15 12 0 13 5 29 12 36 9 9 9 15 0 24 -7 7 -13 8 -13 3z"/>
<path d="M1037 1736 c-4 -10 -3 -15 3 -11 6 3 10 1 10 -6 0 -7 3 -10 6 -6 3 3
2 13 -4 22 -8 16 -9 16 -15 1z"/>
<path d="M1872 1730 c0 -14 2 -19 5 -12 2 6 2 18 0 25 -3 6 -5 1 -5 -13z"/>
<path d="M863 1695 c-3 -9 -3 -18 -1 -21 3 -3 8 4 11 16 6 23 -1 27 -10 5z"/>
<path d="M1186 1683 c-10 -10 -7 -53 4 -53 6 0 10 6 10 14 0 8 4 16 9 18 5 2
3 8 -4 15 -7 6 -16 9 -19 6z"/>
<path d="M1030 1672 c0 -4 10 -9 22 -9 18 -2 20 0 8 7 -18 12 -30 13 -30 2z"/>
<path d="M1131 1652 c-1 -15 -2 -38 -3 -52 0 -13 -7 -29 -15 -35 -14 -10 -14
-14 3 -33 22 -27 34 -28 34 -4 0 9 7 29 14 44 10 18 11 30 4 34 -5 3 -8 17 -5
31 3 16 -1 27 -13 33 -15 8 -18 5 -19 -18z"/>
<path d="M1885 1660 c-3 -5 -1 -10 4 -10 6 0 11 5 11 10 0 6 -2 10 -4 10 -3 0
-8 -4 -11 -10z"/>
<path d="M2990 1655 c9 -11 9 -22 1 -46 -14 -40 -14 -39 4 -39 8 0 12 6 9 14
-3 8 -1 23 4 33 11 20 -1 53 -20 53 -7 0 -6 -5 2 -15z"/>
<path d="M2085 1640 c3 -5 8 -10 11 -10 2 0 4 5 4 10 0 6 -5 10 -11 10 -5 0
-7 -4 -4 -10z"/>
<path d="M3238 1643 c-14 -27 -6 -61 17 -71 24 -11 24 -10 18 21 -6 34 -28 65
-35 50z"/>
<path d="M848 1607 c-16 -23 -13 -47 4 -47 6 0 8 7 4 15 -3 8 -1 15 3 15 12 0
22 28 12 35 -5 2 -15 -5 -23 -18z"/>
<path d="M2946 1621 c-4 -6 -2 -11 3 -11 6 0 11 -8 12 -17 0 -10 3 -13 5 -6 8
18 -11 49 -20 34z"/>
<path d="M2170 1598 c0 -18 18 -34 28 -24 3 4 -2 14 -11 23 -16 16 -17 16 -17
1z"/>
<path d="M3390 1543 c0 -43 5 -41 13 5 4 18 2 32 -3 32 -6 0 -10 -16 -10 -37z"/>
<path d="M2945 1560 c3 -5 11 -10 16 -10 6 0 7 5 4 10 -3 6 -11 10 -16 10 -6
0 -7 -4 -4 -10z"/>
<path d="M3247 1534 c-4 -4 -4 -39 0 -78 5 -60 3 -75 -12 -89 -16 -16 -19 -17
-41 -2 -28 18 -33 9 -6 -12 59 -46 71 -53 77 -43 4 7 -2 14 -14 17 -12 3 -21
9 -21 14 0 5 11 7 25 3 19 -5 25 -2 25 9 0 9 -5 19 -11 23 -8 4 -7 9 2 15 11
6 11 13 3 26 -15 24 -12 78 4 79 6 1 15 2 19 3 6 1 -32 41 -40 41 -2 0 -7 -3
-10 -6z"/>
<path d="M1099 1530 c0 -3 -2 -13 -4 -22 -4 -20 10 -24 21 -7 3 6 1 16 -5 22
-6 6 -11 9 -12 7z"/>
<path d="M3100 1510 c0 -5 5 -10 10 -10 6 0 10 5 10 10 0 6 -4 10 -10 10 -5 0
-10 -4 -10 -10z"/>
<path d="M3390 1491 c0 -5 5 -13 10 -16 6 -3 10 -2 10 4 0 5 -4 13 -10 16 -5
3 -10 2 -10 -4z"/>
<path d="M940 1480 c0 -5 5 -10 10 -10 6 0 10 5 10 10 0 6 -4 10 -10 10 -5 0
-10 -4 -10 -10z"/>
<path d="M2280 1480 c0 -5 7 -10 15 -10 8 0 15 5 15 10 0 6 -7 10 -15 10 -8 0
-15 -4 -15 -10z"/>
<path d="M3357 1473 c-3 -5 5 -15 18 -21 14 -7 24 -15 23 -19 -2 -5 0 -9 5
-10 4 -2 7 -1 7 2 0 3 0 12 0 20 0 8 -9 15 -19 15 -11 0 -21 5 -23 12 -3 8 -6
9 -11 1z"/>
<path d="M963 1456 c-12 -14 -7 -26 9 -26 5 0 6 5 3 10 -3 6 -1 10 4 10 6 0
11 5 11 10 0 14 -13 12 -27 -4z"/>
<path d="M1675 1460 c3 -5 10 -10 16 -10 5 0 9 5 9 10 0 6 -7 10 -16 10 -8 0
-12 -4 -9 -10z"/>
<path d="M2180 1426 c0 -9 5 -16 10 -16 6 0 10 4 10 9 0 6 -4 13 -10 16 -5 3
-10 -1 -10 -9z"/>
<path d="M3288 1434 c-8 -7 23 -44 37 -44 7 0 7 3 0 8 -5 4 -10 13 -10 21 0
15 -17 25 -27 15z"/>
<path d="M2190 1380 c0 -5 4 -10 9 -10 6 0 13 5 16 10 3 6 -1 10 -9 10 -9 0
-16 -4 -16 -10z"/>
<path d="M2535 1380 c-3 -5 -1 -10 4 -10 6 0 11 5 11 10 0 6 -2 10 -4 10 -3 0
-8 -4 -11 -10z"/>
<path d="M3390 1369 c-25 -19 -25 -19 -5 -34 19 -15 20 -14 28 16 10 40 7 42
-23 18z"/>
<path d="M1249 1346 c2 -17 6 -24 9 -16 3 8 9 20 14 26 5 8 2 13 -10 16 -15 4
-17 0 -13 -26z"/>
<path d="M1495 1370 c3 -5 8 -10 11 -10 2 0 4 5 4 10 0 6 -5 10 -11 10 -5 0
-7 -4 -4 -10z"/>
<path d="M2240 1351 c0 -6 4 -13 10 -16 6 -3 7 1 4 9 -7 18 -14 21 -14 7z"/>
<path d="M2525 1340 c-3 -6 1 -7 9 -4 18 7 21 14 7 14 -6 0 -13 -4 -16 -10z"/>
<path d="M2860 1341 c0 -5 7 -12 16 -15 14 -5 15 -4 4 9 -14 17 -20 19 -20 6z"/>
<path d="M910 1330 c0 -5 5 -12 10 -15 16 -10 12 -28 -5 -21 -8 3 -15 1 -15
-4 0 -13 21 -12 40 1 11 8 12 12 2 16 -6 2 -10 8 -7 13 3 4 -2 10 -10 14 -8 3
-15 1 -15 -4z"/>
<path d="M1500 1309 c7 -11 14 -19 16 -16 7 7 -7 37 -17 37 -6 0 -5 -9 1 -21z"/>
<path d="M648 1299 c-10 -5 -18 -17 -18 -24 0 -23 14 -17 27 10 6 14 10 25 10
25 -1 0 -10 -5 -19 -11z"/>
<path d="M3400 1293 c0 -4 5 -15 10 -23 8 -13 10 -13 10 2 0 9 -4 20 -10 23
-5 3 -10 3 -10 -2z"/>
<path d="M2442 1199 c2 -7 10 -15 17 -17 8 -3 12 1 9 9 -2 7 -10 15 -17 17 -8
3 -12 -1 -9 -9z"/>
<path d="M1375 1170 c-3 -6 1 -7 9 -4 18 7 21 14 7 14 -6 0 -13 -4 -16 -10z"/>
<path d="M3384 1147 c-13 -15 -3 -104 16 -152 18 -44 23 -16 15 81 -7 85 -11
94 -31 71z"/>
<path d="M3361 514 c0 -11 3 -14 6 -6 3 7 2 16 -1 19 -3 4 -6 -2 -5 -13z"/>
<path d="M671 424 c0 -11 3 -14 6 -6 3 7 2 16 -1 19 -3 4 -6 -2 -5 -13z"/>
<path d="M739 318 c-9 -28 -3 -48 14 -48 13 0 17 5 13 16 -3 9 -6 20 -6 25 0
8 -18 14 -21 7z"/>
<path d="M1030 271 c0 -6 4 -13 10 -16 6 -3 7 1 4 9 -7 18 -14 21 -14 7z"/>
<path d="M1350 139 c0 -6 -6 -9 -14 -6 -8 3 -20 -1 -26 -9 -10 -12 -7 -14 18
-14 35 0 62 24 37 34 -8 3 -15 1 -15 -5z"/>
<path d="M1395 129 c3 -4 -1 -10 -7 -12 -7 -3 -3 -6 10 -6 12 -1 22 3 22 8 0
5 10 7 22 3 14 -3 19 -1 14 6 -3 6 -20 10 -36 10 -16 -1 -27 -4 -25 -9z"/>
<path d="M1495 120 c-3 -5 -2 -10 4 -10 5 0 13 5 16 10 3 6 2 10 -4 10 -5 0
-13 -4 -16 -10z"/>
<path d="M1700 116 c0 -9 5 -16 10 -16 6 0 10 4 10 9 0 6 -4 13 -10 16 -5 3
-10 -1 -10 -9z"/>
<path d="M2810 90 c0 -5 5 -10 10 -10 6 0 10 5 10 10 0 6 -4 10 -10 10 -5 0
-10 -4 -10 -10z"/>
<path d="M2100 59 c12 -9 11 -10 -8 -6 -12 3 -20 1 -16 -4 3 -5 22 -9 42 -9
34 0 35 1 16 15 -10 8 -26 14 -34 15 -13 0 -13 -1 0 -11z"/>
<path d="M2295 60 c-3 -5 -2 -10 4 -10 5 0 13 5 16 10 3 6 2 10 -4 10 -5 0
-13 -4 -16 -10z"/>
</g>
</svg>
